<svg width="60" height="55" viewBox="0 0 60 55" fill="none" xmlns="http://www.w3.org/2000/svg">
<path d="M31.04 39.4H32.12V46H13.92V44.96L16.12 44.72C16.5467 44.6667 16.8 44.56 16.88 44.4C16.96 44.24 17 43.6933 17 42.76V22.04C17 21.1067 16.96 20.56 16.88 20.4C16.8 20.24 16.5467 20.1333 16.12 20.08L13.92 19.88V18.8H23.56V19.88L21.36 20.08C20.9333 20.1333 20.68 20.24 20.6 20.4C20.52 20.56 20.48 21.1067 20.48 22.04V44.72H27.72C28.36 44.72 28.8133 44.7067 29.08 44.68C29.3467 44.6267 29.52 44.5333 29.6 44.4C29.7067 44.24 29.8 44 29.88 43.68L31.04 39.4Z" fill="#333333"/>
<path d="M29.4492 37.2C27.7559 37.2 26.4626 36.6333 25.5692 35.5C24.6892 34.3667 24.2492 32.8467 24.2492 30.94V29.44C24.2492 28.1867 24.4359 27.0933 24.8092 26.16C25.1959 25.2267 25.7626 24.5 26.5092 23.98C27.2559 23.46 28.1692 23.2 29.2492 23.2C30.2492 23.2 31.0759 23.4 31.7292 23.8C32.3826 24.1867 32.8559 24.7 33.1492 25.34C33.4426 25.9667 33.5359 26.6533 33.4292 27.4L31.7092 27.82C31.8559 26.54 31.7092 25.56 31.2692 24.88C30.8292 24.1867 30.1559 23.84 29.2492 23.84C28.2359 23.84 27.4626 24.2 26.9292 24.92C26.4092 25.64 26.1492 26.8133 26.1492 28.44V31.94C26.1492 33.58 26.4292 34.76 26.9892 35.48C27.5492 36.2 28.3826 36.56 29.4892 36.56C29.9292 36.56 30.3492 36.4867 30.7492 36.34C31.1492 36.18 31.4892 35.9133 31.7692 35.54C32.0492 35.1667 32.2226 34.6467 32.2892 33.98L33.5292 34.3C33.2359 35.3667 32.7159 36.12 31.9692 36.56C31.2359 36.9867 30.3959 37.2 29.4492 37.2Z" fill="#333333"/>
<path d="M29.3785 30.92L26.9385 30.32C23.6051 29.4667 21.9385 27.5467 21.9385 24.56C21.9385 23.5733 22.1651 22.64 22.6185 21.76C23.0718 20.88 23.7918 20.1733 24.7785 19.64C25.7918 19.08 27.0851 18.8 28.6585 18.8C30.4185 18.8 31.8318 19.0933 32.8985 19.68C33.9651 20.2667 34.7118 21.0267 35.1385 21.96C35.5651 22.8933 35.6985 23.9067 35.5385 25L32.4185 25.56C32.7385 23.8267 32.5518 22.48 31.8585 21.52C31.1918 20.56 30.0851 20.08 28.5385 20.08C27.3385 20.08 26.3785 20.3867 25.6585 21C24.9385 21.5867 24.5785 22.4533 24.5785 23.6C24.5785 24.4533 24.8451 25.2133 25.3785 25.88C25.9118 26.52 26.8051 27 28.0585 27.32L30.5785 27.92C32.3385 28.3467 33.6985 29.0267 34.6585 29.96C35.6451 30.8933 36.1385 32.12 36.1385 33.64C36.1385 35.3467 35.5118 36.7333 34.2585 37.8C33.0318 38.8667 31.2718 39.4 28.9785 39.4C27.8851 39.4 26.8185 39.24 25.7785 38.92C24.7651 38.5733 23.8718 38.04 23.0985 37.32C22.3518 36.5733 21.8051 35.6133 21.4585 34.44L23.6985 33.64C23.9918 35.32 24.6318 36.4933 25.6185 37.16C26.6051 37.8267 27.7385 38.16 29.0185 38.16C29.7651 38.16 30.4718 38.04 31.1385 37.8C31.8318 37.56 32.3918 37.1867 32.8185 36.68C33.2451 36.1467 33.4585 35.4667 33.4585 34.64C33.4585 33.7867 33.1651 33.0533 32.5785 32.44C31.9918 31.8267 30.9251 31.32 29.3785 30.92Z" fill="#333333"/>
<path d="M10.02 35.22L9.78 35.86L1.74 32.64V32.08L9.78 28.86L10.02 29.46L2.78 32.34L10.02 35.22Z" fill="#333333"/>
<path d="M46.56 24.2L47.28 24.5L40.36 41.86L39.66 41.56L46.56 24.2ZM57.5981 32.64L49.5581 35.86L49.3181 35.24L56.5581 32.36L49.3181 29.48L49.5581 28.86L57.5981 32.08V32.64Z" fill="#333333"/>
</svg>
