<svg width="100" height="100" viewBox="0 0 100 100" fill="none" xmlns="http://www.w3.org/2000/svg">
<g clip-path="url(#clip0_1_93)">
<mask id="mask0_1_93" style="mask-type:luminance" maskUnits="userSpaceOnUse" x="1" y="2" width="98" height="96">
<path d="M1.40607 50C1.40607 76.1742 23.1627 97.3931 49.9999 97.3931C76.8371 97.3931 98.5939 76.1742 98.5939 50C98.5939 23.826 76.8371 2.60687 49.9999 2.60687C23.1627 2.60687 1.40607 23.826 1.40607 50Z" fill="white"/>
</mask>
<g mask="url(#mask0_1_93)">
<path d="M1.40607 50C1.40607 76.1742 23.1627 97.3931 49.9999 97.3931C76.8371 97.3931 98.5939 76.1742 98.5939 50C98.5939 23.826 76.8371 2.60687 49.9999 2.60687C23.1627 2.60687 1.40607 23.826 1.40607 50Z" fill="url(#paint0_radial_1_93)"/>
</g>
<mask id="mask1_1_93" style="mask-type:luminance" maskUnits="userSpaceOnUse" x="-1" y="-3" width="102" height="106">
<path d="M-0.618683 -2.78973H100.618V102.79H-0.618683V-2.78973Z" fill="white"/>
</mask>
<g mask="url(#mask1_1_93)">
<path d="M49.9999 93.8743C75.7888 93.8743 96.6955 74.231 96.6955 49.9998C96.6955 25.769 75.7888 6.12539 49.9999 6.12539C24.211 6.12539 3.30426 25.769 3.30426 49.9998C3.30426 74.231 24.211 93.8743 49.9999 93.8743Z" fill="#777BB3"/>
</g>
<mask id="mask2_1_93" style="mask-type:luminance" maskUnits="userSpaceOnUse" x="-1" y="-3" width="102" height="106">
<path d="M-0.618683 -2.78973H100.618V102.79H-0.618683V-2.78973Z" fill="white"/>
</mask>
<g mask="url(#mask2_1_93)">
<path d="M27.8076 55.4397C29.9281 55.4397 31.5112 54.7147 32.5128 53.2855C33.5038 51.8709 34.1882 49.4201 34.5469 46.0014C34.8814 42.806 34.7539 40.5749 34.1683 39.3708C33.5695 38.141 32.2748 37.5173 30.3204 37.5173H26.9316L25.0529 55.4397H27.8076ZM16.7237 77.5169C16.5664 77.5169 16.417 77.3866 16.317 77.1611C16.2168 76.9359 16.1762 76.6394 16.2063 76.3529L21.1852 28.8582C21.2333 28.399 21.4504 28.0673 21.7028 28.0673H32.4336C35.806 28.0673 38.3162 29.765 39.894 33.1139C41.4802 36.4804 41.9701 41.1862 41.3498 47.1003C41.0974 49.5097 40.6633 51.7474 40.0596 53.7508C39.4551 55.7565 38.6563 57.6123 37.6849 59.2676C36.5221 61.2854 35.206 62.7485 33.7767 63.6094C32.3701 64.4589 30.5637 64.8897 28.4076 64.8897H24.0625L22.8217 76.7257C22.7735 77.1852 22.5566 77.5169 22.3042 77.5169H16.7237Z" fill="black"/>
<path d="M27.3663 38.4947H30.3204C32.6793 38.4947 33.4987 39.4544 33.7771 40.0263C34.239 40.9758 34.3262 42.9779 34.0293 45.8159C33.6957 48.993 33.0774 51.2457 32.1912 52.5107C31.2839 53.8057 29.809 54.462 27.8076 54.462H25.6925L27.3663 38.4947ZM32.4336 27.0895H21.7026C21.1978 27.0895 20.7639 27.753 20.6676 28.6716L15.6887 76.1664C15.6286 76.7396 15.7098 77.3323 15.91 77.783C16.1103 78.2336 16.4088 78.4943 16.7237 78.4943H22.3041C22.809 78.4943 23.243 77.8309 23.3393 76.9123L24.4972 65.8672H28.4077C30.6191 65.8672 32.4807 65.4201 33.9404 64.5386C35.4415 63.6343 36.8226 62.1012 38.045 59.9818C39.056 58.2573 39.8888 56.3217 40.5197 54.228C41.1509 52.1337 41.6043 49.7982 41.8674 47.2865C42.5204 41.0612 41.99 36.0762 40.2911 32.4708C38.6087 28.9 35.9649 27.0895 32.4336 27.0895ZM24.4132 56.4171H27.8076C30.0575 56.4171 31.7334 55.6315 32.8345 54.0599C33.9358 52.4879 34.6786 49.8644 35.0645 46.188C35.4338 42.6583 35.2656 40.1674 34.5599 38.7163C33.8534 37.2652 32.4404 36.5395 30.3204 36.5395H26.497L24.4132 56.4171ZM32.4336 29.0447C35.6618 29.0447 38.0167 30.6154 39.497 33.757C40.9771 36.8986 41.4228 41.2838 40.8322 46.9137C40.5892 49.2329 40.1781 51.3532 39.5993 53.2742C39.0198 55.1965 38.2632 56.9542 37.3281 58.548C36.2138 60.4813 34.9759 61.859 33.6138 62.6796C32.2517 63.5024 30.5168 63.912 28.4077 63.912H23.6277L22.3041 76.5391H16.7237L21.7026 29.0447H32.4336Z" fill="white"/>
<path d="M54.1448 64.8897C53.9873 64.8897 53.8381 64.7594 53.7381 64.5339C53.6377 64.3087 53.5971 64.0125 53.6272 63.7257L55.8296 42.7112C56.0391 40.7127 55.9875 39.2782 55.6843 38.6721C55.4987 38.3016 54.9412 37.6802 53.2927 37.6802H49.3026L46.5336 64.0985C46.4854 64.558 46.2683 64.8897 46.016 64.8897H40.4795C40.3221 64.8897 40.1728 64.7594 40.0727 64.5339C39.9725 64.3087 39.9319 64.0122 39.9619 63.7257L44.9408 16.231C44.989 15.7718 45.2061 15.4401 45.4584 15.4401H50.9949C51.1523 15.4401 51.3016 15.5704 51.4017 15.7956C51.5019 16.0211 51.5425 16.3173 51.5125 16.6041L50.311 28.0673H54.6034C57.8734 28.0673 60.0907 29.1361 61.3822 31.335C62.6986 33.5782 63.1094 37.165 62.6032 41.9969L60.2867 64.0985C60.2385 64.558 60.0217 64.8897 59.7691 64.8897H54.1448Z" fill="black"/>
<path d="M50.9949 14.4624H45.4585C44.9535 14.4624 44.5196 15.1258 44.4233 16.0445L39.4444 63.5392C39.3842 64.1124 39.4654 64.7052 39.6658 65.1558C39.8662 65.6065 40.1646 65.8672 40.4796 65.8672H46.016C46.5208 65.8672 46.9549 65.2037 47.0512 64.2851L49.7373 38.6577H53.2928C54.9384 38.6577 55.2838 39.3094 55.2976 39.3374C55.3975 39.5365 55.5288 40.4587 55.312 42.5247L53.1096 63.5392C53.0495 64.1124 53.1307 64.7052 53.3311 65.1558C53.5314 65.6065 53.8299 65.8672 54.1448 65.8672H59.7691C60.2739 65.8672 60.708 65.2037 60.8043 64.2851L63.1207 42.1835C63.6643 36.9955 63.1992 33.1037 61.739 30.6154C60.3456 28.2428 58.0115 27.0896 54.6034 27.0896H50.9504L52.0301 16.7907C52.09 16.2175 52.009 15.6244 51.8086 15.1741C51.6083 14.7234 51.3098 14.4624 50.9949 14.4624ZM50.9949 16.4176L49.6712 29.0447H54.6034C57.7068 29.0447 59.8473 30.049 61.0254 32.0551C62.2036 34.0624 62.5565 37.3148 62.0856 41.8107L59.7691 63.912H54.1448L56.3473 42.8978C56.5979 40.5073 56.5058 38.8767 56.0706 38.0073C55.6353 37.1379 54.7092 36.7025 53.2928 36.7025H48.8678L46.016 63.912H40.4796L45.4585 16.4176H50.9949Z" fill="white"/>
<path d="M71.3633 55.4397C73.4839 55.4397 75.0669 54.7147 76.0686 53.2855C77.0595 51.8712 77.7439 49.4204 78.1028 46.0014C78.4373 42.806 78.3099 40.5749 77.7241 39.3708C77.1253 38.141 75.8306 37.5173 73.8762 37.5173H70.4874L68.6087 55.4397H71.3633ZM60.2796 77.5169C60.1223 77.5169 59.9729 77.3866 59.8729 77.1611C59.7727 76.9359 59.732 76.6394 59.762 76.3529L64.7409 28.8582C64.7893 28.399 65.0061 28.0673 65.2587 28.0673H75.9893C79.362 28.0673 81.872 29.765 83.4499 33.1139C85.0362 36.4801 85.5258 41.1859 84.9058 47.1003C84.653 49.5097 84.2191 51.7474 83.6153 53.7508C83.0109 55.7565 82.2121 57.6123 81.2407 59.2676C80.0778 61.2854 78.7617 62.7485 77.3325 63.6094C75.9259 64.4589 74.1194 64.8897 71.9634 64.8897H67.6181L66.3778 76.7257C66.3294 77.1852 66.1125 77.5169 65.86 77.5169H60.2796Z" fill="black"/>
<path d="M70.9221 38.4947H73.8762C76.2351 38.4947 77.0545 39.4544 77.3329 40.0263C77.795 40.9758 77.8821 42.9779 77.5851 45.8155C77.2515 48.993 76.633 51.2457 75.747 52.5107C74.8397 53.8057 73.3648 54.462 71.3634 54.462H69.2485L70.9221 38.4947ZM75.9894 27.0895H65.2586C64.7538 27.0895 64.3199 27.753 64.2235 28.6716L59.2446 76.1664C59.1845 76.7396 59.2657 77.3323 59.4659 77.783C59.6663 78.2336 59.9647 78.4943 60.2797 78.4943H65.86C66.3648 78.4943 66.7989 77.8309 66.8953 76.9123L68.053 65.8672H71.9634C74.1748 65.8672 76.0365 65.4201 77.4962 64.5386C78.9973 63.6343 80.3788 62.1008 81.6012 59.9811C82.6122 58.257 83.4445 56.3217 84.0755 54.228C84.7067 52.1337 85.1601 49.7982 85.4232 47.2865C86.0762 41.0609 85.5457 36.0758 83.8469 32.4705C82.1645 28.9 79.5209 27.0895 75.9894 27.0895ZM67.9691 56.4171H71.3634C73.6133 56.4171 75.2892 55.6315 76.3903 54.0599C77.4918 52.4879 78.2344 49.8644 78.6203 46.188C78.9898 42.6583 78.8216 40.1674 78.1157 38.7163C77.4092 37.2652 75.9962 36.5395 73.8762 36.5395H70.0528L67.9691 56.4171ZM75.9894 29.0447C79.2175 29.0447 81.5725 30.6154 83.0528 33.757C84.533 36.8986 84.9786 41.2838 84.388 46.9137C84.1449 49.2329 83.7338 51.3532 83.1551 53.2742C82.5756 55.1965 81.819 56.9542 80.8839 58.548C79.7696 60.4813 78.5317 61.859 77.1696 62.6796C75.8075 63.5024 74.0726 63.912 71.9634 63.912H67.1835L65.86 76.5391H60.2797L65.2586 29.0447H75.9894Z" fill="white"/>
</g>
</g>
<defs>
<radialGradient id="paint0_radial_1_93" cx="0" cy="0" r="1" gradientUnits="userSpaceOnUse" gradientTransform="translate(30.5821 19.2688) scale(63.8107 118.307)">
<stop stop-color="#AEB2D5"/>
<stop offset="0.3" stop-color="#AEB2D5"/>
<stop offset="0.75" stop-color="#484C89"/>
<stop offset="1" stop-color="#484C89"/>
</radialGradient>
<clipPath id="clip0_1_93">
<rect width="100" height="100" fill="white"/>
</clipPath>
</defs>
</svg>
